<svg version="1.1" viewBox="0.0 0.0 236.0 248.0" fill="none" stroke="none" stroke-linecap="square" stroke-miterlimit="10" xmlns:xlink="http://www.w3.org/1999/xlink" xmlns="http://www.w3.org/2000/svg"><clipPath id="p.0"><path d="m0 0l236.0 0l0 248.0l-236.0 0l0 -248.0z" clip-rule="nonzero"/></clipPath><g clip-path="url(#p.0)"><path fill="#000000" fill-opacity="0.0" d="m0 0l236.0 0l0 248.0l-236.0 0z" fill-rule="evenodd"/><path fill="#9fc5e8" d="m51.68504 21.32835l0 0c0 -7.361044 5.967304 -13.32835 13.32835 -13.32835l105.40629 0c3.5348969 0 6.9250183 1.404233 9.424576 3.9037838c2.4995422 2.4995499 3.903778 5.8896675 3.903778 9.424566l0 53.311802c0 7.361046 -5.9673004 13.328354 -13.328354 13.328354l-105.40629 0c-7.361046 0 -13.32835 -5.967308 -13.32835 -13.328354z" fill-rule="evenodd"/><path stroke="#0b5394" stroke-width="3.0" stroke-linejoin="round" stroke-linecap="butt" d="m51.68504 21.32835l0 0c0 -7.361044 5.967304 -13.32835 13.32835 -13.32835l105.40629 0c3.5348969 0 6.9250183 1.404233 9.424576 3.9037838c2.4995422 2.4995499 3.903778 5.8896675 3.903778 9.424566l0 53.311802c0 7.361046 -5.9673004 13.328354 -13.328354 13.328354l-105.40629 0c-7.361046 0 -13.32835 -5.967308 -13.32835 -13.328354z" fill-rule="evenodd"/><path fill="#cfe2f3" d="m83.07087 152.0105l57.742546 0l11.548782 11.548782l0 75.065384l-69.29133 0z" fill-rule="evenodd"/><path stroke="#0b5394" stroke-width="3.0" stroke-linejoin="round" stroke-linecap="butt" d="m83.07087 152.0105l57.742546 0l11.548782 11.548782l0 75.065384l-69.29133 0z" fill-rule="evenodd"/><path fill="#000000" fill-opacity="0.0" d="m117.71654 87.968506l0 64.031494" fill-rule="evenodd"/><path stroke="#0b5394" stroke-width="3.0" stroke-linejoin="round" stroke-linecap="butt" stroke-dasharray="12.0,9.0" d="m117.71654 87.968506l0 46.031494" fill-rule="evenodd"/><path fill="#0b5394" stroke="#0b5394" stroke-width="3.0" stroke-linecap="butt" d="m112.76134 134.0l4.9552 13.614288l4.9551926 -13.614288z" fill-rule="evenodd"/><path fill="#000000" fill-opacity="0.0" d="m183.74803 47.984253l43.685043 0" fill-rule="evenodd"/><path stroke="#0b5394" stroke-width="3.0" stroke-linejoin="round" stroke-linecap="butt" d="m183.74803 47.984253l25.685043 0" fill-rule="evenodd"/><path fill="#0b5394" stroke="#0b5394" stroke-width="3.0" stroke-linecap="butt" d="m209.43307 52.93945l13.614288 -4.9551964l-13.614288 -4.9551964z" fill-rule="evenodd"/><path fill="#000000" fill-opacity="0.0" d="m8.0 47.984253l43.68504 0" fill-rule="evenodd"/><path stroke="#0b5394" stroke-width="3.0" stroke-linejoin="round" stroke-linecap="butt" d="m8.0 47.984253l25.68504 0" fill-rule="evenodd"/><path fill="#0b5394" stroke="#0b5394" stroke-width="3.0" stroke-linecap="butt" d="m33.68504 52.93945l13.614292 -4.9551964l-13.614292 -4.9551964z" fill-rule="evenodd"/></g></svg>